<svg xmlns="http://www.w3.org/2000/svg" fill="none" viewBox="0 0 144 144"><g clip-path="url(#a)"><rect width="144" height="144" fill="#fff" rx="72"/><path fill="#07D1FF" fill-rule="evenodd" d="M71.585 28.414c-21.55.402-38.69 18.182-38.286 39.71.381 20.318-1.51 68.063-2.822 89.99 11.441 7.776 26.226 6.438 41.108 6.438 13.937 0 26.689.456 37.682-6.438 1.309-22.881 2.467-70.151 2.067-91.452-.404-21.528-18.175-38.68-39.75-38.248Z" clip-rule="evenodd"/><path fill="#121212" fill-rule="evenodd" d="M46.007 77.9V73.263h-1.855V78.828h1.855V77.9Zm-1.855.928c0 15.365 12.457 27.822 27.823 27.822 15.365 0 27.822-12.457 27.822-27.822h-1.855c0 14.341-11.626 25.967-25.967 25.967-14.342 0-25.968-11.626-25.968-25.967h-1.855Zm55.645-4.637V78.828h-1.855V73.263h1.855v.928ZM55.281 54.715c0-2.526 2.462-4.637 5.565-4.637 3.102 0 5.564 2.11 5.564 4.637h1.855c0-3.62-3.35-6.492-7.42-6.492-4.068 0-7.419 2.872-7.419 6.492h1.855ZM77.539 54.715c0-2.526 2.462-4.637 5.564-4.637 3.103 0 5.565 2.11 5.565 4.637h1.854c0-3.62-3.35-6.492-7.419-6.492-4.068 0-7.419 2.872-7.419 6.492h1.855Z" clip-rule="evenodd"/></g><defs><clipPath id="a"><rect width="144" height="144" fill="#fff" rx="72"/></clipPath></defs></svg>