<svg width="400" height="400" viewBox="0 0 400 400" fill="none" xmlns="http://www.w3.org/2000/svg">
<g clip-path="url(#clip0_114_66)">
<rect width="400" height="400" rx="200" fill="white"/>
<path fill-rule="evenodd" clip-rule="evenodd" d="M198.847 78.9289C138.988 80.044 91.3734 129.434 92.496 189.235C93.5565 245.673 88.3053 378.296 84.6573 439.206C116.44 460.804 157.509 457.089 198.847 457.089C237.56 457.089 272.984 458.356 303.52 439.206C307.156 375.648 310.374 244.34 309.262 185.172C308.139 125.371 258.775 77.7253 198.847 78.9289Z" fill="#07D1FF"/>
<path fill-rule="evenodd" clip-rule="evenodd" d="M127.797 216.39V206.085V203.509H122.645V206.085V216.39V218.966H127.797V216.39ZM122.645 218.966C122.645 261.648 157.246 296.25 199.929 296.25C242.612 296.25 277.212 261.648 277.212 218.966H272.06C272.06 258.803 239.766 291.097 199.929 291.097C160.092 291.097 127.797 258.803 127.797 218.966H122.645ZM277.212 206.085V216.39V218.966H272.06V216.39V206.085V203.509H277.212V206.085Z" fill="#121212"/>
<path fill-rule="evenodd" clip-rule="evenodd" d="M153.559 151.987C153.559 144.968 160.398 139.106 169.015 139.106C177.632 139.106 184.472 144.968 184.472 151.987H189.624C189.624 141.932 180.317 133.954 169.015 133.954C157.714 133.954 148.406 141.932 148.406 151.987H153.559Z" fill="#121212"/>
<path fill-rule="evenodd" clip-rule="evenodd" d="M215.385 151.987C215.385 144.968 222.225 139.106 230.842 139.106C239.46 139.106 246.299 144.968 246.299 151.987H251.451C251.451 141.932 242.144 133.954 230.842 133.954C219.541 133.954 210.233 141.932 210.233 151.987H215.385Z" fill="#121212"/>
</g>
<rect x="1.5" y="1.5" width="397" height="397" rx="198.5" stroke="#121212" stroke-width="3"/>
<defs>
<clipPath id="clip0_114_66">
<rect width="400" height="400" rx="200" fill="white"/>
</clipPath>
</defs>
</svg>
