<svg xmlns="http://www.w3.org/2000/svg" width="954.84" height="315.39" aria-hidden="true" class="svg-logo-animate is-inverted"><path fill="none" stroke="#f1f1ee" stroke-linecap="round" stroke-linejoin="round" stroke-width="30" d="M15 282.26c82.24-18.9 163.94-42 240.48-77.56s148.06-83.95 203-148c3.62-4.23 7.3-8.8 8.22-14.29 2.19-13.31-12.38-23.41-25.59-25.97-26.89-5.27-54.3 4.78-79.1 16.45a564.22 564.22 0 0 0-110.67 68.72c-33 26.19-63.94 57.55-77.88 97.27-6.79 19.35-8.46 43.05 5.2 58.35 7.83 8.76 19.41 13.2 30.87 15.8 45.4 10.29 92.4-3.83 136.68-18.22 56-18.2 113.69-38.15 156.55-78.53a536.59 536.59 0 0 0 7.84 124.11" class="logo-letter-g"/><path fill="none" stroke="#f1f1ee" stroke-linecap="round" stroke-linejoin="round" stroke-width="30" d="M575.63 157.42c6.71 29.48 35.44 50 65.13 55.7s60.3-.66 89.56-8.27a1047.23 1047.23 0 0 0 198.26-73.55q7.71 76 11.26 152.29" class="logo-letter-m"/></svg>